<?xml version="1.0" encoding="UTF-8" standalone="no"?>
<!DOCTYPE svg PUBLIC "-//W3C//DTD SVG 1.1//EN"
 "http://www.w3.org/Graphics/SVG/1.1/DTD/svg11.dtd">
<!-- Generated by graphviz version 2.43.0 (0)
 -->
<!-- Title: G Pages: 1 -->
<svg width="816pt" height="409pt"
 viewBox="0.00 0.00 815.80 408.80" xmlns="http://www.w3.org/2000/svg" xmlns:xlink="http://www.w3.org/1999/xlink">
<g id="graph0" class="graph" transform="scale(1 1) rotate(0) translate(14.4 394.4)">
<title>G</title>
<polygon fill="white" stroke="transparent" points="-14.4,14.4 -14.4,-394.4 801.4,-394.4 801.4,14.4 -14.4,14.4"/>
<text text-anchor="start" x="217" y="-365.8" font-family="Times,serif" font-size="14.00">The same ragged frontend, two gfx950 lowerings</text>
<text text-anchor="start" x="253.5" y="-355.8" font-family="Times,serif" font-size="9.00">pruned from literal gfx950 HLO; names and shapes retained</text>
<g id="clust1" class="cluster">
<title>cluster_0</title>
<path fill="white" stroke="#c9d0d6" d="M33,-8C33,-8 767,-8 767,-8 773,-8 779,-14 779,-20 779,-20 779,-130 779,-130 779,-136 773,-142 767,-142 767,-142 33,-142 33,-142 27,-142 21,-136 21,-130 21,-130 21,-20 21,-20 21,-14 27,-8 33,-8"/>
<text text-anchor="middle" x="400" y="-126.8" font-family="Times,serif" font-size="14.00">ragged_dot → dense&#45;padded fusions</text>
</g>
<g id="clust2" class="cluster">
<title>cluster_1</title>
<path fill="white" stroke="#c9d0d6" d="M20,-150C20,-150 596.5,-150 596.5,-150 602.5,-150 608.5,-156 608.5,-162 608.5,-162 608.5,-329 608.5,-329 608.5,-335 602.5,-341 596.5,-341 596.5,-341 20,-341 20,-341 14,-341 8,-335 8,-329 8,-329 8,-162 8,-162 8,-156 14,-150 20,-150"/>
<text text-anchor="middle" x="308.25" y="-325.8" font-family="Times,serif" font-size="14.00">ragged_dot → hipBLASLt grouped GEMM</text>
</g>
<!-- n0 -->
<g id="node1" class="node">
<title>n0</title>
<path fill="#e8eff5" stroke="#496a82" d="M118,-110.5C118,-110.5 41,-110.5 41,-110.5 35,-110.5 29,-104.5 29,-98.5 29,-98.5 29,-85.5 29,-85.5 29,-79.5 35,-73.5 41,-73.5 41,-73.5 118,-73.5 118,-73.5 124,-73.5 130,-79.5 130,-85.5 130,-85.5 130,-98.5 130,-98.5 130,-104.5 124,-110.5 118,-110.5"/>
<text text-anchor="start" x="55" y="-99.5" font-family="DejaVu Sans" font-weight="bold" font-size="10.00">tokens.1</text>
<text text-anchor="start" x="52" y="-89.5" font-family="DejaVu Sans" font-size="10.00">parameter(</text>
<text text-anchor="start" x="37" y="-80.3" font-family="DejaVu Sans Mono" font-size="9.00">f16[64,128]{1,0}</text>
</g>
<!-- n2 -->
<g id="node3" class="node">
<title>n2</title>
<path fill="#e8eff5" stroke="#496a82" d="M361,-86C361,-86 242,-86 242,-86 236,-86 230,-80 230,-74 230,-74 230,-52 230,-52 230,-46 236,-40 242,-40 242,-40 361,-40 361,-40 367,-40 373,-46 373,-52 373,-52 373,-74 373,-74 373,-80 367,-86 361,-86"/>
<text text-anchor="start" x="238" y="-75" font-family="DejaVu Sans" font-weight="bold" font-size="10.00">loop_transpose_fusion</text>
<text text-anchor="start" x="284.5" y="-65" font-family="DejaVu Sans" font-size="10.00">fusion(</text>
<text text-anchor="start" x="248.5" y="-55.8" font-family="DejaVu Sans Mono" font-size="9.00">f16[64,4,128]{2,1,0}</text>
<text text-anchor="start" x="260.5" y="-46.8" font-family="DejaVu Sans" font-size="9.00">mask and expand</text>
</g>
<!-- n0&#45;&gt;n2 -->
<g id="edge1" class="edge">
<title>n0&#45;&gt;n2</title>
<path fill="none" stroke="#6f7880" stroke-width="1.1" d="M130.15,-85.46C157.37,-81.87 191.73,-77.34 222.45,-73.29"/>
<polygon fill="#6f7880" stroke="#6f7880" stroke-width="1.1" points="223.14,-75.67 229.76,-72.32 222.5,-70.81 223.14,-75.67"/>
</g>
<!-- n1 -->
<g id="node2" class="node">
<title>n1</title>
<path fill="#e8eff5" stroke="#496a82" d="M115,-53.5C115,-53.5 44,-53.5 44,-53.5 38,-53.5 32,-47.5 32,-41.5 32,-41.5 32,-28.5 32,-28.5 32,-22.5 38,-16.5 44,-16.5 44,-16.5 115,-16.5 115,-16.5 121,-16.5 127,-22.5 127,-28.5 127,-28.5 127,-41.5 127,-41.5 127,-47.5 121,-53.5 115,-53.5"/>
<text text-anchor="start" x="40" y="-42.5" font-family="DejaVu Sans" font-weight="bold" font-size="10.00">group_sizes.1</text>
<text text-anchor="start" x="52" y="-32.5" font-family="DejaVu Sans" font-size="10.00">parameter(</text>
<text text-anchor="start" x="55.5" y="-23.3" font-family="DejaVu Sans Mono" font-size="9.00">s32[4]{0}</text>
</g>
<!-- n1&#45;&gt;n2 -->
<g id="edge2" class="edge">
<title>n1&#45;&gt;n2</title>
<path fill="none" stroke="#6f7880" stroke-width="1.1" d="M127.16,-40.94C154.83,-44.46 190.62,-49.02 222.48,-53.07"/>
<polygon fill="#6f7880" stroke="#6f7880" stroke-width="1.1" points="222.39,-55.53 229.64,-53.98 223.01,-50.67 222.39,-55.53"/>
</g>
<!-- n3 -->
<g id="node4" class="node">
<title>n3</title>
<path fill="#e8eff5" stroke="#496a82" d="M599,-86C599,-86 472,-86 472,-86 466,-86 460,-80 460,-74 460,-74 460,-52 460,-52 460,-46 466,-40 472,-40 472,-40 599,-40 599,-40 605,-40 611,-46 611,-52 611,-52 611,-74 611,-74 611,-80 605,-86 599,-86"/>
<text text-anchor="start" x="480.5" y="-75" font-family="DejaVu Sans" font-weight="bold" font-size="10.00">gemm_fusion_dot.2</text>
<text text-anchor="start" x="518.5" y="-65" font-family="DejaVu Sans" font-size="10.00">fusion(</text>
<text text-anchor="start" x="482.5" y="-55.8" font-family="DejaVu Sans Mono" font-size="9.00">f32[8,64,128]{2,1,0}</text>
<text text-anchor="start" x="468" y="-46.8" font-family="DejaVu Sans" font-size="9.00">__triton_nested_gemm_fusion</text>
</g>
<!-- n2&#45;&gt;n3 -->
<g id="edge3" class="edge">
<title>n2&#45;&gt;n3</title>
<path fill="none" stroke="#6f7880" stroke-width="1.1" d="M373.05,-63C398.15,-63 426.63,-63 452.6,-63"/>
<polygon fill="#6f7880" stroke="#6f7880" stroke-width="1.1" points="452.86,-65.45 459.86,-63 452.86,-60.55 452.86,-65.45"/>
</g>
<!-- n4 -->
<g id="node5" class="node">
<title>n4</title>
<path fill="#e8eff5" stroke="#496a82" d="M759,-86C759,-86 658,-86 658,-86 652,-86 646,-80 646,-74 646,-74 646,-52 646,-52 646,-46 652,-40 658,-40 658,-40 759,-40 759,-40 765,-40 771,-46 771,-52 771,-52 771,-74 771,-74 771,-80 765,-86 759,-86"/>
<text text-anchor="start" x="654" y="-75" font-family="DejaVu Sans" font-weight="bold" font-size="10.00">loop_reduce_fusion</text>
<text text-anchor="start" x="691.5" y="-65" font-family="DejaVu Sans" font-size="10.00">fusion(</text>
<text text-anchor="start" x="666" y="-55.8" font-family="DejaVu Sans Mono" font-size="9.00">f16[64,128]{1,0}</text>
<text text-anchor="start" x="675" y="-46.8" font-family="DejaVu Sans" font-size="9.00">reduce groups</text>
</g>
<!-- n3&#45;&gt;n4 -->
<g id="edge4" class="edge">
<title>n3&#45;&gt;n4</title>
<path fill="none" stroke="#6f7880" stroke-width="1.1" d="M611.01,-63C620.17,-63 629.5,-63 638.57,-63"/>
<polygon fill="#6f7880" stroke="#6f7880" stroke-width="1.1" points="638.79,-65.45 645.79,-63 638.79,-60.55 638.79,-65.45"/>
</g>
<!-- n5 -->
<g id="node6" class="node">
<title>n5</title>
<path fill="#e8eff5" stroke="#496a82" d="M118,-309.5C118,-309.5 41,-309.5 41,-309.5 35,-309.5 29,-303.5 29,-297.5 29,-297.5 29,-284.5 29,-284.5 29,-278.5 35,-272.5 41,-272.5 41,-272.5 118,-272.5 118,-272.5 124,-272.5 130,-278.5 130,-284.5 130,-284.5 130,-297.5 130,-297.5 130,-303.5 124,-309.5 118,-309.5"/>
<text text-anchor="start" x="55" y="-298.5" font-family="DejaVu Sans" font-weight="bold" font-size="10.00">tokens.1</text>
<text text-anchor="start" x="52" y="-288.5" font-family="DejaVu Sans" font-size="10.00">parameter(</text>
<text text-anchor="start" x="37" y="-279.3" font-family="DejaVu Sans Mono" font-size="9.00">f16[64,128]{1,0}</text>
</g>
<!-- n8 -->
<g id="node9" class="node">
<title>n8</title>
<path fill="#e8eff5" stroke="#496a82" d="M413,-257C413,-257 190,-257 190,-257 184,-257 178,-251 178,-245 178,-245 178,-223 178,-223 178,-217 184,-211 190,-211 190,-211 413,-211 413,-211 419,-211 425,-217 425,-223 425,-223 425,-245 425,-245 425,-251 419,-257 413,-257"/>
<text text-anchor="start" x="263.5" y="-246" font-family="DejaVu Sans" font-weight="bold" font-size="10.00">custom&#45;call.1</text>
<text text-anchor="start" x="271" y="-236" font-family="DejaVu Sans" font-size="10.00">custom&#45;call(</text>
<text text-anchor="start" x="222.5" y="-226.8" font-family="DejaVu Sans Mono" font-size="9.00">(f16[64,128]{1,0}, s8[784]{0})</text>
<text text-anchor="start" x="186" y="-217.8" font-family="DejaVu Sans" font-size="9.00">custom_call_target=&quot;__cublas$lt$groupedMatmul&quot;</text>
</g>
<!-- n5&#45;&gt;n8 -->
<g id="edge5" class="edge">
<title>n5&#45;&gt;n8</title>
<path fill="none" stroke="#6f7880" stroke-width="1.1" d="M130.15,-278.14C152.25,-272.41 179.06,-265.46 204.81,-258.79"/>
<polygon fill="#6f7880" stroke="#6f7880" stroke-width="1.1" points="205.52,-261.14 211.69,-257.01 204.29,-256.4 205.52,-261.14"/>
</g>
<!-- n6 -->
<g id="node7" class="node">
<title>n6</title>
<path fill="#e8eff5" stroke="#496a82" d="M131,-252.5C131,-252.5 28,-252.5 28,-252.5 22,-252.5 16,-246.5 16,-240.5 16,-240.5 16,-227.5 16,-227.5 16,-221.5 22,-215.5 28,-215.5 28,-215.5 131,-215.5 131,-215.5 137,-215.5 143,-221.5 143,-227.5 143,-227.5 143,-240.5 143,-240.5 143,-246.5 137,-252.5 131,-252.5"/>
<text text-anchor="start" x="52" y="-241.5" font-family="DejaVu Sans" font-weight="bold" font-size="10.00">experts.1</text>
<text text-anchor="start" x="52" y="-231.5" font-family="DejaVu Sans" font-size="10.00">parameter(</text>
<text text-anchor="start" x="24" y="-222.3" font-family="DejaVu Sans Mono" font-size="9.00">f16[4,128,128]{2,1,0}</text>
</g>
<!-- n6&#45;&gt;n8 -->
<g id="edge6" class="edge">
<title>n6&#45;&gt;n8</title>
<path fill="none" stroke="#6f7880" stroke-width="1.1" d="M143.25,-234C151.95,-234 161.14,-234 170.54,-234"/>
<polygon fill="#6f7880" stroke="#6f7880" stroke-width="1.1" points="170.75,-236.45 177.75,-234 170.75,-231.55 170.75,-236.45"/>
</g>
<!-- n7 -->
<g id="node8" class="node">
<title>n7</title>
<path fill="#e8eff5" stroke="#496a82" d="M115,-195.5C115,-195.5 44,-195.5 44,-195.5 38,-195.5 32,-189.5 32,-183.5 32,-183.5 32,-170.5 32,-170.5 32,-164.5 38,-158.5 44,-158.5 44,-158.5 115,-158.5 115,-158.5 121,-158.5 127,-164.5 127,-170.5 127,-170.5 127,-183.5 127,-183.5 127,-189.5 121,-195.5 115,-195.5"/>
<text text-anchor="start" x="40" y="-184.5" font-family="DejaVu Sans" font-weight="bold" font-size="10.00">group_sizes.1</text>
<text text-anchor="start" x="52" y="-174.5" font-family="DejaVu Sans" font-size="10.00">parameter(</text>
<text text-anchor="start" x="55.5" y="-165.3" font-family="DejaVu Sans Mono" font-size="9.00">s32[4]{0}</text>
</g>
<!-- n7&#45;&gt;n8 -->
<g id="edge7" class="edge">
<title>n7&#45;&gt;n8</title>
<path fill="none" stroke="#6f7880" stroke-width="1.1" d="M127.16,-189.09C149.83,-194.96 177.95,-202.25 204.9,-209.23"/>
<polygon fill="#6f7880" stroke="#6f7880" stroke-width="1.1" points="204.33,-211.61 211.72,-211 205.56,-206.87 204.33,-211.61"/>
</g>
<!-- n9 -->
<g id="node10" class="node">
<title>n9</title>
<path fill="#e8eff5" stroke="#496a82" d="M588.5,-252.5C588.5,-252.5 482.5,-252.5 482.5,-252.5 476.5,-252.5 470.5,-246.5 470.5,-240.5 470.5,-240.5 470.5,-227.5 470.5,-227.5 470.5,-221.5 476.5,-215.5 482.5,-215.5 482.5,-215.5 588.5,-215.5 588.5,-215.5 594.5,-215.5 600.5,-221.5 600.5,-227.5 600.5,-227.5 600.5,-240.5 600.5,-240.5 600.5,-246.5 594.5,-252.5 588.5,-252.5"/>
<text text-anchor="start" x="478.5" y="-241.5" font-family="DejaVu Sans" font-weight="bold" font-size="10.00">get&#45;tuple&#45;element.1</text>
<text text-anchor="start" x="489" y="-231.5" font-family="DejaVu Sans" font-size="10.00">get&#45;tuple&#45;element(</text>
<text text-anchor="start" x="493" y="-222.3" font-family="DejaVu Sans Mono" font-size="9.00">f16[64,128]{1,0}</text>
</g>
<!-- n8&#45;&gt;n9 -->
<g id="edge8" class="edge">
<title>n8&#45;&gt;n9</title>
<path fill="none" stroke="#6f7880" stroke-width="1.1" d="M425.29,-234C438.29,-234 451.16,-234 463.27,-234"/>
<polygon fill="#6f7880" stroke="#6f7880" stroke-width="1.1" points="463.31,-236.45 470.31,-234 463.31,-231.55 463.31,-236.45"/>
</g>
</g>
</svg>
