<?xml version="1.0" encoding="UTF-8" standalone="no"?>
<!DOCTYPE svg PUBLIC "-//W3C//DTD SVG 1.1//EN"
 "http://www.w3.org/Graphics/SVG/1.1/DTD/svg11.dtd">
<!-- Generated by graphviz version 2.43.0 (0)
 -->
<!-- Title: G Pages: 1 -->
<svg width="446pt" height="134pt"
 viewBox="0.00 0.00 446.40 134.40" xmlns="http://www.w3.org/2000/svg" xmlns:xlink="http://www.w3.org/1999/xlink">
<g id="graph0" class="graph" transform="scale(1 1) rotate(0) translate(7.2 127.2)">
<title>G</title>
<text text-anchor="middle" x="216" y="-104.8" font-family="Helvetica,sans-Serif" font-size="14.00" fill="#27313b">BF16 MaxText linear: ordinary HLO dot</text>
<!-- master -->
<g id="node1" class="node">
<title>master</title>
<path fill="#dff0e4" stroke="#4e8a5c" d="M77,-97C77,-97 12,-97 12,-97 6,-97 0,-91 0,-85 0,-85 0,-73 0,-73 0,-67 6,-61 12,-61 12,-61 77,-61 77,-61 83,-61 89,-67 89,-73 89,-73 89,-85 89,-85 89,-91 83,-97 77,-97"/>
<text text-anchor="middle" x="44.5" y="-82" font-family="Helvetica,sans-Serif" font-size="10.00" fill="#27313b">master weight</text>
<text text-anchor="middle" x="44.5" y="-71" font-family="Helvetica,sans-Serif" font-size="10.00" fill="#27313b">f32[256,256]</text>
</g>
<!-- cast -->
<g id="node2" class="node">
<title>cast</title>
<path fill="#f5f7f8" stroke="#8a959e" d="M253,-97C253,-97 140,-97 140,-97 134,-97 128,-91 128,-85 128,-85 128,-73 128,-73 128,-67 134,-61 140,-61 140,-61 253,-61 253,-61 259,-61 265,-67 265,-73 265,-73 265,-85 265,-85 265,-91 259,-97 253,-97"/>
<text text-anchor="middle" x="196.5" y="-82" font-family="Helvetica,sans-Serif" font-size="10.00" fill="#27313b">convert_element_type.1</text>
<text text-anchor="middle" x="196.5" y="-71" font-family="Helvetica,sans-Serif" font-size="10.00" fill="#27313b">bf16[256,256]</text>
</g>
<!-- master&#45;&gt;cast -->
<g id="edge1" class="edge">
<title>master&#45;&gt;cast</title>
<path fill="none" stroke="#8a959e" stroke-width="1.1" d="M89.29,-79C99.22,-79 110.04,-79 120.85,-79"/>
<polygon fill="#8a959e" stroke="#8a959e" stroke-width="1.1" points="120.94,-81.45 127.94,-79 120.94,-76.55 120.94,-81.45"/>
</g>
<!-- dot -->
<g id="node4" class="node">
<title>dot</title>
<path fill="#dce9f5" stroke="#3f76ab" d="M420,-59.5C420,-59.5 328,-59.5 328,-59.5 322,-59.5 316,-53.5 316,-47.5 316,-47.5 316,-26.5 316,-26.5 316,-20.5 322,-14.5 328,-14.5 328,-14.5 420,-14.5 420,-14.5 426,-14.5 432,-20.5 432,-26.5 432,-26.5 432,-47.5 432,-47.5 432,-53.5 426,-59.5 420,-59.5"/>
<text text-anchor="middle" x="374" y="-45.5" font-family="Helvetica,sans-Serif" font-size="10.00" fill="#27313b">dot_general.1</text>
<text text-anchor="middle" x="374" y="-34.5" font-family="Helvetica,sans-Serif" font-size="10.00" fill="#27313b">dot, contract K=256</text>
<text text-anchor="middle" x="374" y="-23.5" font-family="Helvetica,sans-Serif" font-size="10.00" fill="#27313b">bf16[128,256]</text>
</g>
<!-- cast&#45;&gt;dot -->
<g id="edge2" class="edge">
<title>cast&#45;&gt;dot</title>
<path fill="none" stroke="#8a959e" stroke-width="1.1" d="M265.1,-62.82C279.54,-59.37 294.75,-55.73 309.05,-52.31"/>
<polygon fill="#8a959e" stroke="#8a959e" stroke-width="1.1" points="309.75,-54.66 315.98,-50.65 308.61,-49.89 309.75,-54.66"/>
<text text-anchor="middle" x="290.5" y="-60.6" font-family="Helvetica,sans-Serif" font-size="8.00" fill="#65717d">rhs</text>
</g>
<!-- activation -->
<g id="node3" class="node">
<title>activation</title>
<path fill="#dce9f5" stroke="#3f76ab" d="M228,-36C228,-36 165,-36 165,-36 159,-36 153,-30 153,-24 153,-24 153,-12 153,-12 153,-6 159,0 165,0 165,0 228,0 228,0 234,0 240,-6 240,-12 240,-12 240,-24 240,-24 240,-30 234,-36 228,-36"/>
<text text-anchor="middle" x="196.5" y="-21" font-family="Helvetica,sans-Serif" font-size="10.00" fill="#27313b">activation</text>
<text text-anchor="middle" x="196.5" y="-10" font-family="Helvetica,sans-Serif" font-size="10.00" fill="#27313b">bf16[128,256]</text>
</g>
<!-- activation&#45;&gt;dot -->
<g id="edge3" class="edge">
<title>activation&#45;&gt;dot</title>
<path fill="none" stroke="#8a959e" stroke-width="1.1" d="M240.13,-22.12C257.74,-23.86 278.36,-25.96 297,-28 300.8,-28.42 304.7,-28.85 308.64,-29.3"/>
<polygon fill="#8a959e" stroke="#8a959e" stroke-width="1.1" points="308.51,-31.75 315.74,-30.11 309.07,-26.88 308.51,-31.75"/>
<text text-anchor="middle" x="290.5" y="-30.6" font-family="Helvetica,sans-Serif" font-size="8.00" fill="#65717d">lhs</text>
</g>
</g>
</svg>
